HIERARCHY
ROOT Hips
{
	OFFSET 0.000000 0.000000 0.000000 
	CHANNELS 6 Xposition Yposition Zposition Yrotation Zrotation Xrotation 
	JOINT Lumbar
	{
		OFFSET 0.000000 0.000000 0.000000 
		CHANNELS 3 Zrotation Xrotation Yrotation
		JOINT Neck
		{
			OFFSET 0.000000 0.445665 0.000000 
			CHANNELS 3 Zrotation Xrotation Yrotation
			End Site
			{
				OFFSET 0.000000 0.227535 0.000000 
			}
		}
		JOINT RightShoulder
		{
			OFFSET 0.019635 0.377685 0.194865 
			CHANNELS 3 Zrotation Xrotation Yrotation
			JOINT RightElbow
			{
				OFFSET 0.000000 -0.243375 0.000000 
				CHANNELS 2 Zrotation Yrotation
				JOINT RightWrist
				{
					OFFSET 0.000000 -0.264825 0.000000 
					CHANNELS 2 Zrotation Xrotation
					End Site
					{
						OFFSET 0.006600 -0.176220 0.000990 
					}
				}
			}
		}
		JOINT LeftShoulder
		{
			OFFSET 0.019635 0.377685 -0.194865 
			CHANNELS 3 Zrotation Xrotation Yrotation
			JOINT LeftElbow
			{
				OFFSET 0.000000 -0.243375 0.000000 
				CHANNELS 2 Zrotation Yrotation
				JOINT LeftWrist
				{
					OFFSET 0.000000 -0.264825 0.000000 
					CHANNELS 2 Zrotation Xrotation
					End Site
					{
						OFFSET 0.006600 -0.176220 -0.000990 
					}
				}
			}
		}
	}
	JOINT RightHip
	{
		OFFSET 0.052140 -0.069960 0.075570 
		CHANNELS 3 Zrotation Xrotation Yrotation
		JOINT RightKnee
		{
			OFFSET 0.000000 -0.402270 0.000000 
			CHANNELS 1 Zrotation
			JOINT RightAnkle
			{
				OFFSET 0.000000 -0.404085 0.000000 
				CHANNELS 3 Zrotation Xrotation Yrotation
				End Site
				{
					OFFSET 0.204105 -0.089430 0.008415 
				}
			}
		}
	}
	JOINT LeftHip
	{
		OFFSET 0.052140 -0.069960 -0.075570 
		CHANNELS 3 Zrotation Xrotation Yrotation
		JOINT LeftKnee
		{
			OFFSET 0.000000 -0.402270 0.000000 
			CHANNELS 1 Zrotation
			JOINT LeftAnkle
			{
				OFFSET 0.000000 -0.404085 0.000000 
				CHANNELS 3 Zrotation Xrotation Yrotation
				End Site
				{
					OFFSET 0.204105 -0.089430 -0.008415 
				}
			}
		}
	}
}
MOTION
Frames: 33
Frame Time: 0.02
-3.03133 0.01854 0.0875 514.75971 -29.06438 -13.30614 30.90942 -3.15564 -8.40561 -29.70482 -16.06701 -2.11994 -35.82242 -21.121 2.6094 58.04057 82.30611 0.01029 -2.07405 -11.33017 25.89564 -9.06252 35.48662 -80.30888 -6.91532 -1.22629 8.29292 -4.58411 31.63264 0.47637 -29.80358 -25.34342 -16.45619 6.31711 3.31607 10.11462 0.50551 -4.98399 12.4477 8.33718
-3.02778 0.01879 0.08762 514.40282 -29.25566 -13.51144 30.7549 -3.21794 -7.81985 -29.62812 -16.13957 -2.11994 -35.90204 -20.40623 2.21145 57.60291 82.35817 -0.14669 -1.8017 -11.2999 26.24162 -9.18218 35.30073 -80.3235 -6.8272 -1.32933 8.33131 -4.79879 30.2126 0.47338 -31.6141 -26.61423 -16.85935 6.74683 3.49818 10.32711 0.50747 -4.62728 12.5243 8.33709
-3.02383 0.01907 0.08751 513.99549 -29.33183 -13.66695 30.44836 -3.28125 -6.94396 -29.59676 -16.22523 -2.11994 -35.95971 -19.37454 1.53044 57.06121 82.45764 -0.38747 -1.31965 -11.26242 26.58408 -9.30203 35.09845 -80.35019 -6.66168 -1.39518 8.23641 -4.95055 27.88847 0.46755 -34.79455 -28.84561 -17.55226 7.05629 3.63272 10.63194 0.50938 -4.28984 12.52069 8.28801
-3.02004 0.01933 0.0875 513.61951 -29.46635 -13.84574 30.21515 -3.34417 -6.2109 -29.54805 -16.30534 -2.11994 -36.02221 -18.51324 1.01847 56.58856 82.53416 -0.57738 -0.90171 -11.24317 26.92071 -9.39582 34.90282 -80.37045 -6.53757 -1.47753 8.20162 -5.12713 26.03403 0.46283 -37.28114 -30.5732 -18.0918 7.42833 3.79267 10.88521 0.51132 -3.93904 12.55774 8.26558
-3.01633 0.01962 0.08752 513.20504 -29.58381 -14.02511 29.97041 -3.40617 -5.42727 -29.4834 -16.37964 -2.11994 -36.10668 -17.54006 0.34221 56.01829 82.61617 -0.81846 -0.60591 -11.16718 27.29123 -9.59954 34.71829 -80.39455 -6.38736 -1.56417 8.18054 -5.32035 23.90711 0.4587 -40.04967 -32.57086 -18.71887 7.77679 3.93913 11.17641 0.51321 -3.60374 12.58093 8.22739
-3.01237 0.01984 0.0874 512.86379 -29.70203 -14.18743 29.70643 -3.47188 -4.68281 -29.46421 -16.47151 -2.11994 -36.13984 -16.72549 -0.06157 55.6301 82.69799 -0.97497 -0.02057 -11.20414 27.58883 -9.57602 34.50119 -80.41349 -6.27293 -1.63158 8.08858 -5.46362 22.14166 0.45271 -42.56068 -34.23687 -19.23322 8.13703 4.10012 11.41008 0.5152 -3.2435 12.61159 8.20847
-3.00781 0.01986 0.08702 512.68774 -29.90498 -14.35004 29.48793 -3.52997 -4.10376 -29.55158 -16.59949 -2.11994 -36.03889 -16.41886 0.35733 55.75466 82.77001 -0.86455 1.45385 -11.56768 27.69215 -8.90326 34.22978 -80.41637 -6.27744 -1.66118 7.91193 -5.48346 21.58329 0.44237 -44.05621 -34.76967 -19.36771 8.62357 4.33009 11.48016 0.51755 -2.79298 12.69332 8.26564
-3.00302 0.0198 0.08648 512.59528 -30.10392 -14.49165 29.24623 -3.59393 -3.57709 -29.68479 -16.74709 -2.11994 -35.88612 -16.28421 1.05905 56.06943 82.83996 -0.66866 3.18994 -12.04176 27.72068 -8.00589 33.91936 -80.41346 -6.32027 -1.67159 7.65509 -5.45404 21.41158 0.43016 -45.23907 -34.92486 -19.37398 9.11573 4.57375 11.48643 0.52 -2.31947 12.78319 8.3418
-2.99833 0.01977 0.08598 512.49772 -30.26596 -14.6185 28.97156 -3.66788 -3.03589 -29.80241 -16.89197 -2.11994 -35.75629 -16.07573 1.62981 56.30808 82.90932 -0.52071 4.70997 -12.45631 27.77918 -7.22478 33.60569 -80.41247 -6.34487 -1.68605 7.38046 -5.44921 21.09244 0.41895 -46.55268 -35.25618 -19.44457 9.55965 4.79869 11.51083 0.52235 -1.86868 12.86144 8.40157
-2.99366 0.01975 0.08562 512.26297 -30.57952 -14.84201 28.86502 -3.69249 -2.44548 -29.89957 -17.01028 -2.11994 -35.6304 -15.83778 2.2014 56.50003 82.9864 -0.33763 6.63343 -12.91088 27.85487 -6.38234 33.38106 -80.4149 -6.37065 -1.71772 7.32255 -5.43794 20.68001 0.40749 -47.97651 -35.64177 -19.52038 10.18308 5.0715 11.58428 0.52492 -1.3696 12.96919 8.49155
-2.9889 0.0197 0.08493 512.33022 -30.58805 -14.86513 28.41768 -3.81618 -1.97366 -30.04948 -17.18943 -2.11994 -35.48163 -15.70634 2.84169 56.83506 83.04678 -0.20583 7.79351 -13.30723 27.87662 -5.61616 32.96071 -80.40867 -6.40355 -1.71105 6.80559 -5.4229 20.49267 0.39552 -49.06002 -35.76186 -19.52511 10.44708 5.25254 11.53921 0.52707 -0.96178 13.01996 8.52487
-2.98397 0.01963 0.08339 513.24858 -29.66766 -14.29311 26.92348 -4.25651 -1.81871 -30.33424 -17.52233 -2.11994 -35.30514 -15.8279 3.60743 57.52577 83.05707 -0.24044 6.62558 -13.52605 27.77123 -5.09898 32.02066 -80.37998 -6.45166 -1.58978 4.95708 -5.46564 21.48594 0.38801 -49.44246 -35.68365 -19.59444 9.61616 5.14064 11.18213 0.52793 -0.84309 12.89926 8.38769
-2.97896 0.01953 0.08151 514.4617 -28.4561 -13.52795 25.108 -4.78883 -1.78198 -30.66963 -17.91682 -2.11994 -35.10328 -16.05245 4.4332 58.35303 83.05121 -0.3283 4.70507 -13.6807 27.61344 -4.66904 30.88395 -80.34272 -6.50508 -1.43343 2.66516 -5.49746 22.5918 0.37921 -49.46157 -35.27511 -19.55811 8.44132 4.94181 10.70743 0.52839 -0.81143 12.72378 8.19485
-2.97398 0.01943 0.07977 515.51477 -27.43743 -12.88379 23.51432 -5.24886 -1.6916 -30.98212 -18.29015 -2.11994 -34.89823 -16.2304 5.22945 59.11377 83.05545 -0.38901 3.2347 -13.85786 27.47742 -4.21044 29.82874 -80.30933 -6.55324 -1.30192 0.63235 -5.49609 23.2007 0.36723 -49.52685 -34.70858 -19.4109 7.49267 4.80817 10.28659 0.52912 -0.7187 12.58155 8.03389
-2.96902 0.01939 0.07811 516.67883 -26.16794 -12.10355 21.60248 -5.83455 -1.60404 -31.2982 -18.63816 -2.11994 -34.75352 -16.41194 6.04418 59.90032 83.04807 -0.45991 1.33102 -14.06644 27.34766 -3.69901 28.80133 -80.27589 -6.61474 -1.13151 -1.64453 -5.64855 25.63539 0.37038 -50.06173 -35.38416 -19.90666 6.25512 4.5711 9.86258 0.52949 -0.71449 12.40361 7.84572
-2.96401 0.01921 0.07619 517.68323 -25.3454 -11.55491 20.27389 -6.18433 -1.53615 -31.61519 -19.04974 -2.11994 -34.47774 -16.60996 6.83185 60.66257 83.06101 -0.5225 0.13024 -14.19353 27.1931 -3.31954 27.67492 -80.24052 -6.64921 -1.03485 -3.51977 -5.48557 24.3758 0.34261 -49.56441 -33.45684 -19.06936 5.52999 4.52295 9.41716 0.53048 -0.54881 12.28776 7.70081
-2.95881 0.01866 0.07358 518.15202 -25.88405 -11.74708 20.66552 -5.82492 -1.51 -31.94751 -19.65154 -2.11994 -33.84657 -16.81317 7.52179 61.32725 83.13422 -0.55688 1.20565 -14.10528 26.9858 -3.30036 26.28146 -80.20293 -6.60762 -1.14319 -4.1543 -4.39518 12.15686 0.22244 -46.06242 -23.94041 -14.3295 6.37043 5.06664 8.94935 0.53337 0.10067 12.34975 7.68838
-2.95357 0.01796 0.0707 518.45369 -26.87257 -12.16905 21.65 -5.23122 -1.49619 -32.27386 -20.30923 -2.11994 -33.08443 -17.03126 8.18225 61.96075 83.22816 -0.58037 2.98677 -13.93774 26.75524 -3.40983 24.80436 -80.16368 -6.53847 -1.32795 -4.37245 -2.99912 -3.63815 0.07263 -41.5815 -11.91842 -8.30364 7.7267 5.7943 8.46292 0.53664 0.9125 12.4772 7.72137
-2.94839 0.01729 0.06796 518.84638 -27.61808 -12.45043 22.34221 -4.76817 -1.46589 -32.58641 -20.92207 -2.11994 -32.38251 -17.25181 8.86068 62.60629 83.31276 -0.60368 4.34191 -13.80999 26.53371 -3.449 23.39163 -80.12442 -6.48183 -1.48317 -4.79699 -1.78178 -17.33278 -0.05889 -37.70919 -1.34814 -3.0229 8.80236 6.40559 7.98009 0.53996 1.63884 12.57947 7.73392
-2.94301 0.01676 0.06516 519.18608 -28.51459 -12.87753 23.11773 -4.20726 -1.48605 -32.97124 -21.62037 -2.11994 -31.67736 -17.43772 9.52348 63.26783 83.39742 -0.64895 6.10751 -13.6645 26.31659 -3.53713 21.85579 -80.08754 -6.42547 -1.61717 -5.16779 -0.39539 -33.07511 -0.21107 -33.13091 10.59933 2.96103 10.0582 7.1521 7.51356 0.54328 2.41124 12.66128 7.74386
-2.93804 0.01592 0.06241 519.59225 -29.20927 -13.05842 23.8671 -3.79207 -1.40206 -33.20248 -22.15165 -2.11994 -30.94738 -17.69721 10.20929 63.88418 83.48589 -0.64709 7.20542 -13.53761 26.08575 -3.5576 20.56524 -80.04608 -6.36188 -1.81158 -5.54183 0.71059 -45.34592 -0.32691 -29.79768 20.21403 7.75799 11.06927 7.6619 7.01031 0.54554 3.12782 12.80105 7.77052
-2.93423 0.01428 0.05984 520.2244 -29.21964 -12.50236 24.37977 -3.84675 -1.03029 -33.01881 -22.21996 -2.11994 -30.18719 -18.16156 10.97976 64.40369 83.59047 -0.50109 6.20462 -13.48424 25.82061 -3.3183 19.92175 -79.98678 -6.2852 -2.17485 -6.05906 0.97414 -47.67024 -0.338 -30.1199 23.2591 9.19562 11.25195 7.47269 6.4116 0.54919 3.64196 13.08918 7.83301
-2.93082 0.01233 0.05732 520.92728 -29.0156 -11.69195 24.85038 -4.05357 -0.55208 -32.6792 -22.11552 -2.11994 -29.40521 -18.69768 11.77145 64.87332 83.69645 -0.31066 4.52626 -13.4519 25.5432 -3.01392 19.53906 -79.92404 -6.2021 -2.59254 -6.5859 0.94403 -46.30051 -0.31107 -31.73107 23.79076 9.35672 11.17883 7.0398 5.77823 0.54712 4.09277 13.43016 7.9099
-2.9272 0.01052 0.05478 521.59545 -28.92277 -10.9992 25.35529 -4.18393 -0.12024 -32.40544 -22.08235 -2.11994 -28.62947 -19.19722 12.54398 65.353 83.79465 -0.15148 3.21632 -13.40877 25.27299 -2.76598 19.07046 -79.86658 -6.12191 -2.97199 -7.08449 1.04344 -46.26169 -0.29955 -32.77334 25.13687 9.94075 11.2396 6.71863 5.15869 0.54962 4.58315 13.74781 7.9812
-2.92372 0.00873 0.05219 522.26942 -28.78888 -10.30461 25.81876 -4.33805 0.30234 -32.1521 -22.08261 -2.11994 -27.8656 -19.71508 13.35578 65.88897 83.92297 0.05386 1.67663 -13.369 24.99482 -2.4087 18.45864 -79.79326 -6.04101 -3.41134 -7.66852 1.16854 -47.74019 -0.29653 -33.72573 27.90118 11.2069 11.23666 6.39809 4.54105 0.5595 5.04822 14.07585 8.05405
-2.92001 0.00682 0.04972 522.94949 -28.6818 -9.55172 26.34811 -4.48064 0.77002 -31.82001 -21.97034 -2.11994 -27.07231 -20.21036 14.0911 66.29118 83.98955 0.17454 0.44356 -13.32705 24.73095 -2.26258 18.2113 -79.75229 -5.96013 -3.73755 -8.0837 1.16843 -45.2299 -0.26692 -35.16447 27.14888 10.76558 11.30779 6.018 3.91838 0.53297 5.53049 14.38008 8.12145
-2.91567 0.00461 0.04754 523.6364 -28.71619 -8.68913 27.09094 -4.5651 1.33284 -31.3023 -21.59856 -2.11994 -26.21501 -20.63586 14.61044 66.37859 83.87706 0.04125 0.23726 -13.28534 24.50677 -2.70945 18.88139 -79.80079 -5.88342 -3.74013 -8.01872 0.8754 -31.76272 -0.16846 -37.80739 16.70762 5.62676 11.56711 5.51538 3.23084 0.5794 6.23744 14.72826 8.2149
-2.91105 0.00229 0.04546 524.32667 -28.77989 -7.77789 27.89444 -4.63159 1.93758 -30.71216 -21.11732 -2.11994 -25.32771 -21.03402 15.05179 66.32484 83.70371 -0.17716 0.35674 -13.2394 24.2979 -3.37103 19.91462 -79.88208 -5.80659 -3.6261 -7.78755 0.46861 -14.54355 -0.04527 -40.86817 2.9094 -1.1393 11.92074 4.96395 2.55017 0.55986 6.93647 15.03027 8.29485
-2.90648 4e-05 0.04333 525.01116 -28.81812 -6.89454 28.65348 -4.70059 2.52606 -30.15901 -20.68029 -2.11994 -24.44649 -21.43815 15.52914 66.30872 83.56367 -0.35043 0.31427 -13.18773 24.08417 -3.93823 20.79835 -79.94886 -5.72829 -3.56378 -7.64227 0.12468 0.41425 0.06363 -43.62573 -8.97194 -6.97162 12.28192 4.44518 1.90605 0.45436 7.52774 15.26908 8.35015
-2.90227 -0.0023 0.04122 525.71513 -28.90053 -5.97666 29.48342 -4.79961 3.10851 -29.58216 -20.26151 -2.11994 -23.59465 -21.87267 16.00626 66.40487 83.40029 -0.54909 0.30744 -13.16726 23.86178 -4.49181 21.62485 -80.01397 -5.65624 -3.50914 -7.45389 -0.27688 17.82547 0.18664 -46.90246 -22.5799 -13.66158 12.42673 3.87252 1.09514 0.82745 8.57234 15.85352 8.53165
-2.89722 -0.00447 0.0391 526.3795 -28.9005 -5.12417 30.17968 -4.82868 3.70954 -29.04083 -19.77987 -2.11994 -22.67688 -22.23566 16.46331 66.23171 83.27049 -0.71605 0.31229 -13.0828 23.66045 -5.12301 22.65429 -80.09025 -5.57114 -3.40972 -7.31501 -0.58107 30.997 0.28576 -49.18488 -33.37065 -18.94276 13.04153 3.40524 0.63128 0.20153 8.69006 15.72102 8.45229
-2.88993 -0.00621 0.03691 526.92375 -28.66684 -4.4503 30.4989 -4.67885 4.37301 -28.60501 -19.16133 -2.11994 -21.56782 -22.41373 16.89806 65.3713 83.25298 -0.77171 0.27361 -12.80429 23.52044 -5.93787 24.14579 -80.19048 -5.45092 -3.2186 -7.36033 -0.59269 31.2946 0.31172 -48.57571 -35.4268 -19.86505 14.98526 3.22807 1.14511 -3.28155 6.09066 13.49343 7.6091
-2.8818 -0.00778 0.03472 527.42927 -28.35002 -3.84777 30.6804 -4.45678 5.04917 -28.21032 -18.48224 -2.11994 -20.39733 -22.51889 17.31198 64.24073 83.27048 -0.79333 0.2381 -12.46566 23.4 -6.81949 25.82876 -80.30059 -5.31753 -2.98612 -7.45989 -0.50039 27.22327 0.3128 -46.95346 -34.54371 -19.3199 17.3891 3.16195 2.0039 -7.7455 2.58811 10.56888 6.51236
